<?xml version="1.0" standalone="no"?>
<!DOCTYPE svg PUBLIC "-//W3C//DTD SVG 20010904//EN"
 "http://www.w3.org/TR/2001/REC-SVG-20010904/DTD/svg10.dtd">
<svg version="1.0" xmlns="http://www.w3.org/2000/svg"
 width="512.000000pt" height="512.000000pt" viewBox="0 0 512.000000 512.000000"
 preserveAspectRatio="xMidYMid meet">

<g transform="translate(0.000000,512.000000) scale(0.100000,-0.100000)"
fill="#000000" stroke="none">
<path d="M1685 3397 c-92 -45 -135 -113 -135 -214 0 -71 25 -127 72 -169 53
-46 117 -68 182 -61 125 13 210 106 210 232 0 69 -20 117 -66 164 -45 46 -83
63 -153 68 -49 3 -69 0 -110 -20z"/>
<path d="M2481 3406 c-124 -45 -188 -195 -134 -316 87 -196 367 -182 438 21
29 81 9 171 -52 234 -67 69 -165 93 -252 61z"/>
<path d="M3244 3401 c-80 -36 -144 -132 -144 -216 0 -48 31 -123 67 -160 91
-94 225 -101 323 -18 55 48 80 101 80 178 0 77 -25 130 -80 178 -69 59 -166
74 -246 38z"/>
</g>
</svg>
